<mxfile host="app.diagrams.net" agent="Mozilla/5.0 (Windows NT 10.0; Win64; x64) AppleWebKit/537.36 (KHTML, like Gecko) Chrome/128.0.0.0 Safari/537.36 Edg/128.0.0.0" version="24.7.15">
  <diagram name="페이지-1" id="8g3DjIs7-QtR-ZdmJvyc">
    <mxGraphModel dx="1180" dy="793" grid="1" gridSize="10" guides="1" tooltips="1" connect="1" arrows="1" fold="1" page="1" pageScale="1" pageWidth="827" pageHeight="1169" math="0" shadow="0">
      <root>
        <mxCell id="0" />
        <mxCell id="1" parent="0" />
        <mxCell id="v2kHigRoNf7MXU90HApn-16" style="edgeStyle=orthogonalEdgeStyle;rounded=0;sketch=1;hachureGap=4;jiggle=2;curveFitting=1;orthogonalLoop=1;jettySize=auto;html=1;exitX=1;exitY=0.5;exitDx=0;exitDy=0;strokeColor=#9673a6;fontFamily=Architects Daughter;fontSource=https%3A%2F%2Ffonts.googleapis.com%2Fcss%3Ffamily%3DArchitects%2BDaughter;fontColor=#393C56;fillColor=#e1d5e7;" edge="1" parent="1" source="v2kHigRoNf7MXU90HApn-17" target="v2kHigRoNf7MXU90HApn-13">
          <mxGeometry relative="1" as="geometry" />
        </mxCell>
        <mxCell id="6" value="ELM FrontEnd" style="whiteSpace=wrap;strokeWidth=2;labelBackgroundColor=none;fillColor=#F2CC8F;strokeColor=#E07A5F;fontColor=#393C56;sketch=1;curveFitting=1;jiggle=2;" parent="1" vertex="1">
          <mxGeometry x="80" y="70" width="162" height="49" as="geometry" />
        </mxCell>
        <mxCell id="7" value="ELM SOA" style="whiteSpace=wrap;strokeWidth=2;labelBackgroundColor=none;fillColor=#F2CC8F;strokeColor=#E07A5F;fontColor=#393C56;sketch=1;curveFitting=1;jiggle=2;" parent="1" vertex="1">
          <mxGeometry x="270" y="290" width="161" height="49" as="geometry" />
        </mxCell>
        <mxCell id="8" value="ELM DB" style="whiteSpace=wrap;strokeWidth=2;labelBackgroundColor=none;fillColor=#F2CC8F;strokeColor=#E07A5F;fontColor=#393C56;sketch=1;curveFitting=1;jiggle=2;" parent="1" vertex="1">
          <mxGeometry x="90" y="436" width="152" height="49" as="geometry" />
        </mxCell>
        <mxCell id="9" value="ELM BackEnd" style="whiteSpace=wrap;strokeWidth=2;labelBackgroundColor=none;fillColor=#F2CC8F;strokeColor=#E07A5F;fontColor=#393C56;sketch=1;curveFitting=1;jiggle=2;" parent="1" vertex="1">
          <mxGeometry x="85" y="213" width="152" height="49" as="geometry" />
        </mxCell>
        <mxCell id="10" value="" style="curved=1;startArrow=none;endArrow=block;exitX=0.5;exitY=1;entryX=0.5;entryY=0;labelBackgroundColor=none;strokeColor=#E07A5F;fontColor=default;sketch=1;curveFitting=1;jiggle=2;" parent="1" source="6" target="9" edge="1">
          <mxGeometry relative="1" as="geometry">
            <Array as="points" />
          </mxGeometry>
        </mxCell>
        <mxCell id="11" value="" style="curved=1;startArrow=none;endArrow=block;exitX=1;exitY=0.5;entryX=0;entryY=0.5;labelBackgroundColor=none;strokeColor=#E07A5F;fontColor=default;sketch=1;curveFitting=1;jiggle=2;exitDx=0;exitDy=0;entryDx=0;entryDy=0;" parent="1" source="9" target="7" edge="1">
          <mxGeometry relative="1" as="geometry">
            <Array as="points" />
          </mxGeometry>
        </mxCell>
        <mxCell id="12" value="" style="curved=1;startArrow=none;endArrow=block;exitX=0.5;exitY=1;entryX=0.5;entryY=0;labelBackgroundColor=none;strokeColor=#E07A5F;fontColor=default;sketch=1;curveFitting=1;jiggle=2;exitDx=0;exitDy=0;" parent="1" source="9" target="8" edge="1">
          <mxGeometry relative="1" as="geometry">
            <Array as="points" />
          </mxGeometry>
        </mxCell>
        <mxCell id="v2kHigRoNf7MXU90HApn-19" style="edgeStyle=orthogonalEdgeStyle;rounded=0;sketch=1;hachureGap=4;jiggle=2;curveFitting=1;orthogonalLoop=1;jettySize=auto;html=1;exitX=0.5;exitY=1;exitDx=0;exitDy=0;entryX=0.5;entryY=0;entryDx=0;entryDy=0;strokeColor=#6c8ebf;fontFamily=Architects Daughter;fontSource=https%3A%2F%2Ffonts.googleapis.com%2Fcss%3Ffamily%3DArchitects%2BDaughter;fontColor=#393C56;fillColor=#dae8fc;" edge="1" parent="1" source="v2kHigRoNf7MXU90HApn-13" target="v2kHigRoNf7MXU90HApn-14">
          <mxGeometry relative="1" as="geometry" />
        </mxCell>
        <mxCell id="v2kHigRoNf7MXU90HApn-23" style="edgeStyle=orthogonalEdgeStyle;rounded=0;sketch=1;hachureGap=4;jiggle=2;curveFitting=1;orthogonalLoop=1;jettySize=auto;html=1;exitX=0;exitY=1;exitDx=0;exitDy=0;strokeColor=#9673a6;fontFamily=Architects Daughter;fontSource=https%3A%2F%2Ffonts.googleapis.com%2Fcss%3Ffamily%3DArchitects%2BDaughter;fontColor=#393C56;fillColor=#e1d5e7;" edge="1" parent="1" source="v2kHigRoNf7MXU90HApn-24">
          <mxGeometry relative="1" as="geometry">
            <mxPoint x="390" y="280" as="targetPoint" />
            <Array as="points">
              <mxPoint x="400" y="255" />
              <mxPoint x="391" y="255" />
            </Array>
          </mxGeometry>
        </mxCell>
        <mxCell id="v2kHigRoNf7MXU90HApn-13" value="ELM AI" style="whiteSpace=wrap;strokeWidth=2;labelBackgroundColor=none;fillColor=#dae8fc;strokeColor=#6c8ebf;sketch=1;curveFitting=1;jiggle=2;" vertex="1" parent="1">
          <mxGeometry x="500" y="70" width="162" height="49" as="geometry" />
        </mxCell>
        <mxCell id="v2kHigRoNf7MXU90HApn-21" style="edgeStyle=orthogonalEdgeStyle;rounded=0;sketch=1;hachureGap=4;jiggle=2;curveFitting=1;orthogonalLoop=1;jettySize=auto;html=1;exitX=0;exitY=0.5;exitDx=0;exitDy=0;entryX=1;entryY=0.5;entryDx=0;entryDy=0;strokeColor=#6c8ebf;fontFamily=Architects Daughter;fontSource=https%3A%2F%2Ffonts.googleapis.com%2Fcss%3Ffamily%3DArchitects%2BDaughter;fontColor=#393C56;fillColor=#dae8fc;" edge="1" parent="1" source="v2kHigRoNf7MXU90HApn-14" target="8">
          <mxGeometry relative="1" as="geometry">
            <Array as="points">
              <mxPoint x="490" y="345" />
              <mxPoint x="490" y="461" />
            </Array>
          </mxGeometry>
        </mxCell>
        <mxCell id="v2kHigRoNf7MXU90HApn-22" style="edgeStyle=orthogonalEdgeStyle;rounded=0;sketch=1;hachureGap=4;jiggle=2;curveFitting=1;orthogonalLoop=1;jettySize=auto;html=1;exitX=0.5;exitY=1;exitDx=0;exitDy=0;entryX=0.5;entryY=0;entryDx=0;entryDy=0;strokeColor=#6c8ebf;fontFamily=Architects Daughter;fontSource=https%3A%2F%2Ffonts.googleapis.com%2Fcss%3Ffamily%3DArchitects%2BDaughter;fontColor=#393C56;fillColor=#dae8fc;" edge="1" parent="1" source="v2kHigRoNf7MXU90HApn-14" target="v2kHigRoNf7MXU90HApn-15">
          <mxGeometry relative="1" as="geometry" />
        </mxCell>
        <mxCell id="v2kHigRoNf7MXU90HApn-14" value="LLM Server" style="whiteSpace=wrap;strokeWidth=2;labelBackgroundColor=none;fillColor=#dae8fc;strokeColor=#6c8ebf;sketch=1;curveFitting=1;jiggle=2;" vertex="1" parent="1">
          <mxGeometry x="580" y="320" width="152" height="49" as="geometry" />
        </mxCell>
        <mxCell id="v2kHigRoNf7MXU90HApn-15" value="Vector DB" style="whiteSpace=wrap;strokeWidth=2;labelBackgroundColor=none;fillColor=#dae8fc;strokeColor=#6c8ebf;sketch=1;curveFitting=1;jiggle=2;" vertex="1" parent="1">
          <mxGeometry x="570" y="470" width="152" height="49" as="geometry" />
        </mxCell>
        <mxCell id="v2kHigRoNf7MXU90HApn-18" value="" style="edgeStyle=orthogonalEdgeStyle;rounded=0;sketch=1;hachureGap=4;jiggle=2;curveFitting=1;orthogonalLoop=1;jettySize=auto;html=1;strokeColor=#9673a6;fontFamily=Architects Daughter;fontSource=https%3A%2F%2Ffonts.googleapis.com%2Fcss%3Ffamily%3DArchitects%2BDaughter;fontColor=#393C56;fillColor=#e1d5e7;" edge="1" parent="1" target="v2kHigRoNf7MXU90HApn-17">
          <mxGeometry relative="1" as="geometry">
            <mxPoint x="300" y="290" as="sourcePoint" />
            <mxPoint x="500" y="95" as="targetPoint" />
            <Array as="points">
              <mxPoint x="300" y="290" />
              <mxPoint x="300" y="140" />
            </Array>
          </mxGeometry>
        </mxCell>
        <mxCell id="v2kHigRoNf7MXU90HApn-17" value="Request" style="text;html=1;align=center;verticalAlign=middle;resizable=0;points=[];autosize=1;strokeColor=none;fillColor=none;fontFamily=Architects Daughter;fontSource=https%3A%2F%2Ffonts.googleapis.com%2Fcss%3Ffamily%3DArchitects%2BDaughter;fontColor=#393C56;" vertex="1" parent="1">
          <mxGeometry x="370" y="119" width="70" height="30" as="geometry" />
        </mxCell>
        <mxCell id="v2kHigRoNf7MXU90HApn-25" value="" style="edgeStyle=orthogonalEdgeStyle;rounded=0;sketch=1;hachureGap=4;jiggle=2;curveFitting=1;orthogonalLoop=1;jettySize=auto;html=1;exitX=0;exitY=1;exitDx=0;exitDy=0;strokeColor=#9673a6;fontFamily=Architects Daughter;fontSource=https%3A%2F%2Ffonts.googleapis.com%2Fcss%3Ffamily%3DArchitects%2BDaughter;fontColor=#393C56;fillColor=#e1d5e7;" edge="1" parent="1" source="v2kHigRoNf7MXU90HApn-13" target="v2kHigRoNf7MXU90HApn-24">
          <mxGeometry relative="1" as="geometry">
            <mxPoint x="390" y="280" as="targetPoint" />
            <mxPoint x="500" y="119" as="sourcePoint" />
          </mxGeometry>
        </mxCell>
        <mxCell id="v2kHigRoNf7MXU90HApn-24" value="Response" style="text;html=1;align=center;verticalAlign=middle;resizable=0;points=[];autosize=1;strokeColor=none;fillColor=none;fontFamily=Architects Daughter;fontSource=https%3A%2F%2Ffonts.googleapis.com%2Fcss%3Ffamily%3DArchitects%2BDaughter;fontColor=#393C56;" vertex="1" parent="1">
          <mxGeometry x="400" y="200" width="80" height="30" as="geometry" />
        </mxCell>
      </root>
    </mxGraphModel>
  </diagram>
</mxfile>
